<svg xmlns="http://www.w3.org/2000/svg" viewBox="0 0 24 24"><path d="M22 8.077V5.5a.5.5 0 0 0-.5-.5A2.503 2.503 0 0 1 19 2.5a.5.5 0 0 0-.5-.5h-3.077c-.36-1.154-1.955-2-3.923-2S7.938.846 7.577 2H5.5a.5.5 0 0 0-.5.5C5 3.879 3.878 5 2.5 5a.5.5 0 0 0-.5.5v2.577C.846 8.437 0 10.032 0 12s.846 3.563 2 3.923V18.5a.5.5 0 0 0 .5.5C3.878 19 5 20.121 5 21.5a.5.5 0 0 0 .5.5h2.577c.36 1.154 1.955 2 3.923 2s3.562-.846 3.923-2H18.5a.5.5 0 0 0 .5-.5c0-1.379 1.122-2.5 2.5-2.5a.5.5 0 0 0 .5-.5v-2.577c1.154-.36 2-1.955 2-3.923s-.846-3.563-2-3.923zM21.5 15a.5.5 0 0 0-.5.5v2.535A3.51 3.51 0 0 0 18.036 21H15.5a.5.5 0 0 0-.5.5c0 .71-1.232 1.5-3 1.5s-3-.79-3-1.5a.5.5 0 0 0-.5-.5H5.964A3.509 3.509 0 0 0 3 18.035V15.5a.5.5 0 0 0-.5-.5C1.791 15 1 13.768 1 12s.791-3 1.5-3a.5.5 0 0 0 .5-.5V5.965A3.51 3.51 0 0 0 5.964 3H8a.5.5 0 0 0 .5-.5c0-.71 1.232-1.5 3-1.5s3 .79 3 1.5a.5.5 0 0 0 .5.5h3.036A3.509 3.509 0 0 0 21 5.965V8.5a.5.5 0 0 0 .5.5c.709 0 1.5 1.232 1.5 3s-.791 3-1.5 3z"/></svg>